<svg xmlns="http://www.w3.org/2000/svg" xmlns:xlink="http://www.w3.org/1999/xlink" xmlns:lucid="lucid" width="611.72" height="247.36"><g transform="translate(-349.2834967472515 381)" lucid:page-tab-id="0_0"><path d="M0-500h1000V0H0z" fill="#fff"/><path d="M370.28-360H600v200H370.28z" fill="#fff"/><path d="M370.28-360H600v200H370.28zM370.28-320H600M430.28-320v160M540-320v160" stroke="#4d9eff" stroke-width="2" fill="none"/><use xlink:href="#a" transform="matrix(1,0,0,1,380.2834967472515,-360) translate(77.55 23.6)"/><use xlink:href="#b" transform="matrix(1,0,0,1,375.2834967472515,-317.5) translate(0 17.1)"/><use xlink:href="#c" transform="matrix(1,0,0,1,435.2834967472515,-317.5) translate(0 17.1)"/><use xlink:href="#d" transform="matrix(1,0,0,1,545,-317.5) translate(0 17.1)"/><use xlink:href="#e" transform="matrix(1,0,0,1,435.2834967472515,-285.5) translate(0 17.1)"/><use xlink:href="#f" transform="matrix(1,0,0,1,545,-285.5) translate(0 17.1)"/><use xlink:href="#g" transform="matrix(1,0,0,1,435.2834967472515,-253.5) translate(0 17.1)"/><use xlink:href="#f" transform="matrix(1,0,0,1,545,-253.5) translate(0 17.1)"/><use xlink:href="#h" transform="matrix(1,0,0,1,435.2834967472515,-221.5) translate(0 17.1)"/><use xlink:href="#f" transform="matrix(1,0,0,1,545,-221.5) translate(0 17.1)"/><use xlink:href="#i" transform="matrix(1,0,0,1,375.2834967472515,-189.5) translate(0 17.1)"/><use xlink:href="#j" transform="matrix(1,0,0,1,435.2834967472515,-189.5) translate(0 17.1)"/><use xlink:href="#d" transform="matrix(1,0,0,1,545,-189.5) translate(0 17.1)"/><path d="M720-360h220v104H720z" fill="#fff"/><path d="M720-360h220v104H720zM720-320h220M780-320v64M880-320v64" stroke="#4d9eff" stroke-width="2" fill="none"/><use xlink:href="#k" transform="matrix(1,0,0,1,730,-360) translate(70.05 23.6)"/><use xlink:href="#b" transform="matrix(1,0,0,1,725,-317.5) translate(0 17.1)"/><use xlink:href="#j" transform="matrix(1,0,0,1,785,-317.5) translate(0 17.1)"/><use xlink:href="#d" transform="matrix(1,0,0,1,885,-317.5) translate(0 17.1)"/><use xlink:href="#g" transform="matrix(1,0,0,1,785,-285.5) translate(0 17.1)"/><use xlink:href="#f" transform="matrix(1,0,0,1,885,-285.5) translate(0 17.1)"/><path d="M640.5-175.64h7.5a12 12 0 0 0 12-12v-104.32a12 12 0 0 1 12-12h27" stroke="#3a414a" fill="none"/><path d="M601-175.64h20m-10 10v-20m30 10c0 5.53-4.48 10-10 10s-10-4.47-10-10c0-5.52 4.48-10 10-10s10 4.48 10 10z" stroke="#3a414a" fill="#fff"/><path d="M719-303.96h-20m10-10v20m-10-20v20" stroke="#3a414a" fill="none"/><defs><path fill="#3a414a" d="M140-251c81 0 123 46 123 126C263-46 219 4 140 4 59 4 17-45 17-125s42-126 123-126zm0 227c63 0 89-41 89-101s-29-99-89-99c-61 0-89 39-89 99S79-25 140-24" id="l"/><path fill="#3a414a" d="M114-163C36-179 61-72 57 0H25l-1-190h30c1 12-1 29 2 39 6-27 23-49 58-41v29" id="m"/><path fill="#3a414a" d="M85-194c31 0 48 13 60 33l-1-100h32l1 261h-30c-2-10 0-23-3-31C134-8 116 4 85 4 32 4 16-35 15-94c0-66 23-100 70-100zm9 24c-40 0-46 34-46 75 0 40 6 74 45 74 42 0 51-32 51-76 0-42-9-74-50-73" id="n"/><path fill="#3a414a" d="M100-194c63 0 86 42 84 106H49c0 40 14 67 53 68 26 1 43-12 49-29l28 8c-11 28-37 45-77 45C44 4 14-33 15-96c1-61 26-98 85-98zm52 81c6-60-76-77-97-28-3 7-6 17-6 28h103" id="o"/><path fill="#3a414a" d="M135-143c-3-34-86-38-87 0 15 53 115 12 119 90S17 21 10-45l28-5c4 36 97 45 98 0-10-56-113-15-118-90-4-57 82-63 122-42 12 7 21 19 24 35" id="p"/><g id="a"><use transform="matrix(0.05,0,0,0.05,0,0)" xlink:href="#l"/><use transform="matrix(0.05,0,0,0.05,14,0)" xlink:href="#m"/><use transform="matrix(0.05,0,0,0.05,19.95,0)" xlink:href="#n"/><use transform="matrix(0.05,0,0,0.05,29.950000000000003,0)" xlink:href="#o"/><use transform="matrix(0.05,0,0,0.05,39.95,0)" xlink:href="#m"/><use transform="matrix(0.05,0,0,0.05,45.900000000000006,0)" xlink:href="#p"/></g><path fill="#3a414a" d="M30-248c87 1 191-15 191 75 0 78-77 80-158 76V0H30v-248zm33 125c57 0 124 11 124-50 0-59-68-47-124-48v98" id="q"/><path fill="#3a414a" d="M194 0L95-120 63-95V0H30v-248h33v124l119-124h40L117-140 236 0h-42" id="r"/><g id="b"><use transform="matrix(0.05,0,0,0.05,0,0)" xlink:href="#q"/><use transform="matrix(0.05,0,0,0.05,12,0)" xlink:href="#r"/></g><path fill="#3a414a" d="M100-194c62-1 85 37 85 99 1 63-27 99-86 99S16-35 15-95c0-66 28-99 85-99zM99-20c44 1 53-31 53-75 0-43-8-75-51-75s-53 32-53 75 10 74 51 75" id="s"/><path fill="#3a414a" d="M-5 72V49h209v23H-5" id="t"/><path fill="#3a414a" d="M24-231v-30h32v30H24zM24 0v-190h32V0H24" id="u"/><g id="c"><use transform="matrix(0.05,0,0,0.05,0,0)" xlink:href="#s"/><use transform="matrix(0.05,0,0,0.05,10,0)" xlink:href="#m"/><use transform="matrix(0.05,0,0,0.05,15.949999999999998,0)" xlink:href="#n"/><use transform="matrix(0.05,0,0,0.05,25.950000000000003,0)" xlink:href="#o"/><use transform="matrix(0.05,0,0,0.05,35.95,0)" xlink:href="#m"/><use transform="matrix(0.05,0,0,0.05,41.900000000000006,0)" xlink:href="#t"/><use transform="matrix(0.05,0,0,0.05,51.900000000000006,0)" xlink:href="#u"/><use transform="matrix(0.05,0,0,0.05,55.85,0)" xlink:href="#n"/></g><path fill="#3a414a" d="M110-160c48 1 74 30 74 79 0 53-28 85-80 85-65 0-83-55-86-122-5-90 50-162 133-122 14 7 22 21 27 39l-31 6c-5-40-67-38-82-6-9 19-15 44-15 74 11-20 30-34 60-33zm-7 138c34 0 49-23 49-58s-16-56-50-56c-29 0-50 16-49 49 1 36 15 65 50 65" id="v"/><path fill="#3a414a" d="M155-56V0h-30v-56H8v-25l114-167h33v167h35v25h-35zm-30-156c-27 46-58 90-88 131h88v-131" id="w"/><g id="d"><use transform="matrix(0.05,0,0,0.05,0,0)" xlink:href="#u"/><use transform="matrix(0.05,0,0,0.05,3.95,0)" xlink:href="#v"/><use transform="matrix(0.05,0,0,0.05,13.949999999999998,0)" xlink:href="#w"/></g><path fill="#3a414a" d="M117-194c89-4 53 116 60 194h-32v-121c0-31-8-49-39-48C34-167 62-67 57 0H25l-1-190h30c1 10-1 24 2 32 11-22 29-35 61-36" id="x"/><path fill="#3a414a" d="M141-36C126-15 110 5 73 4 37 3 15-17 15-53c-1-64 63-63 125-63 3-35-9-54-41-54-24 1-41 7-42 31l-33-3c5-37 33-52 76-52 45 0 72 20 72 64v82c-1 20 7 32 28 27v20c-31 9-61-2-59-35zM48-53c0 20 12 33 32 33 41-3 63-29 60-74-43 2-92-5-92 41" id="y"/><path fill="#3a414a" d="M210-169c-67 3-38 105-44 169h-31v-121c0-29-5-50-35-48C34-165 62-65 56 0H25l-1-190h30c1 10-1 24 2 32 10-44 99-50 107 0 11-21 27-35 58-36 85-2 47 119 55 194h-31v-121c0-29-5-49-35-48" id="z"/><g id="e"><use transform="matrix(0.05,0,0,0.05,0,0)" xlink:href="#x"/><use transform="matrix(0.05,0,0,0.05,10,0)" xlink:href="#y"/><use transform="matrix(0.05,0,0,0.05,20,0)" xlink:href="#z"/><use transform="matrix(0.05,0,0,0.05,34.95,0)" xlink:href="#o"/></g><path fill="#3a414a" d="M59-47c-2 24 18 29 38 22v24C64 9 27 4 27-40v-127H5v-23h24l9-43h21v43h35v23H59v120" id="A"/><path fill="#3a414a" d="M177-190C167-65 218 103 67 71c-23-6-38-20-44-43l32-5c15 47 100 32 89-28v-30C133-14 115 1 83 1 29 1 15-40 15-95c0-56 16-97 71-98 29-1 48 16 59 35 1-10 0-23 2-32h30zM94-22c36 0 50-32 50-73 0-42-14-75-50-75-39 0-46 34-46 75s6 73 46 73" id="B"/><g id="f"><use transform="matrix(0.05,0,0,0.05,0,0)" xlink:href="#p"/><use transform="matrix(0.05,0,0,0.05,9,0)" xlink:href="#A"/><use transform="matrix(0.05,0,0,0.05,14,0)" xlink:href="#m"/><use transform="matrix(0.05,0,0,0.05,19.95,0)" xlink:href="#u"/><use transform="matrix(0.05,0,0,0.05,23.9,0)" xlink:href="#x"/><use transform="matrix(0.05,0,0,0.05,33.9,0)" xlink:href="#B"/></g><path fill="#3a414a" d="M101-234c-31-9-42 10-38 44h38v23H63V0H32v-167H5v-23h27c-7-52 17-82 69-68v24" id="C"/><path fill="#3a414a" d="M24 0v-261h32V0H24" id="D"/><path fill="#3a414a" d="M115-194c55 1 70 41 70 98S169 2 115 4C84 4 66-9 55-30l1 105H24l-1-265h31l2 30c10-21 28-34 59-34zm-8 174c40 0 45-34 45-75s-6-73-45-74c-42 0-51 32-51 76 0 43 10 73 51 73" id="E"/><path fill="#3a414a" d="M106-169C34-169 62-67 57 0H25v-261h32l-1 103c12-21 28-36 61-36 89 0 53 116 60 194h-32v-121c2-32-8-49-39-48" id="F"/><g id="g"><use transform="matrix(0.05,0,0,0.05,0,0)" xlink:href="#C"/><use transform="matrix(0.05,0,0,0.05,5,0)" xlink:href="#u"/><use transform="matrix(0.05,0,0,0.05,8.95,0)" xlink:href="#D"/><use transform="matrix(0.05,0,0,0.05,12.899999999999999,0)" xlink:href="#o"/><use transform="matrix(0.05,0,0,0.05,22.9,0)" xlink:href="#E"/><use transform="matrix(0.05,0,0,0.05,32.9,0)" xlink:href="#y"/><use transform="matrix(0.05,0,0,0.05,42.9,0)" xlink:href="#A"/><use transform="matrix(0.05,0,0,0.05,47.9,0)" xlink:href="#F"/></g><path fill="#3a414a" d="M84 4C-5 8 30-112 23-190h32v120c0 31 7 50 39 49 72-2 45-101 50-169h31l1 190h-30c-1-10 1-25-2-33-11 22-28 36-60 37" id="G"/><g id="h"><use transform="matrix(0.05,0,0,0.05,0,0)" xlink:href="#p"/><use transform="matrix(0.05,0,0,0.05,9,0)" xlink:href="#A"/><use transform="matrix(0.05,0,0,0.05,14,0)" xlink:href="#y"/><use transform="matrix(0.05,0,0,0.05,24,0)" xlink:href="#A"/><use transform="matrix(0.05,0,0,0.05,29,0)" xlink:href="#G"/><use transform="matrix(0.05,0,0,0.05,39,0)" xlink:href="#p"/></g><path fill="#3a414a" d="M63-220v92h138v28H63V0H30v-248h175v28H63" id="H"/><g id="i"><use transform="matrix(0.05,0,0,0.05,0,0)" xlink:href="#H"/><use transform="matrix(0.05,0,0,0.05,10.950000000000001,0)" xlink:href="#r"/></g><g id="j"><use transform="matrix(0.05,0,0,0.05,0,0)" xlink:href="#m"/><use transform="matrix(0.05,0,0,0.05,5.95,0)" xlink:href="#o"/><use transform="matrix(0.05,0,0,0.05,15.949999999999998,0)" xlink:href="#p"/><use transform="matrix(0.05,0,0,0.05,24.95,0)" xlink:href="#G"/><use transform="matrix(0.05,0,0,0.05,34.95,0)" xlink:href="#D"/><use transform="matrix(0.05,0,0,0.05,38.900000000000006,0)" xlink:href="#A"/><use transform="matrix(0.05,0,0,0.05,43.900000000000006,0)" xlink:href="#t"/><use transform="matrix(0.05,0,0,0.05,53.900000000000006,0)" xlink:href="#u"/><use transform="matrix(0.05,0,0,0.05,57.85,0)" xlink:href="#n"/></g><path fill="#3a414a" d="M233-177c-1 41-23 64-60 70L243 0h-38l-65-103H63V0H30v-248c88 3 205-21 203 71zM63-129c60-2 137 13 137-47 0-61-80-42-137-45v92" id="I"/><g id="k"><use transform="matrix(0.05,0,0,0.05,0,0)" xlink:href="#I"/><use transform="matrix(0.05,0,0,0.05,12.950000000000001,0)" xlink:href="#o"/><use transform="matrix(0.05,0,0,0.05,22.950000000000003,0)" xlink:href="#p"/><use transform="matrix(0.05,0,0,0.05,31.950000000000003,0)" xlink:href="#G"/><use transform="matrix(0.05,0,0,0.05,41.95,0)" xlink:href="#D"/><use transform="matrix(0.05,0,0,0.05,45.900000000000006,0)" xlink:href="#A"/><use transform="matrix(0.05,0,0,0.05,50.900000000000006,0)" xlink:href="#p"/></g></defs></g></svg>